# xmcd
#
# Track frame offsets: 
#        150
#        12825
#        26475
#        39150
#        51815
#        63675
#        76875
#        89625
#        101250
#        113400
#        121300
#        133075
#        145085
#        158912
#        172527
#        184300
#        196750
#        210850
#        223600
#        236585
#        251080
#        264080
#        277275
#
# Disc length: 3829 seconds
#
# Revision: 2
# Processed by: cddbd v1.5.2PL0 Copyright (c) Steve Scherf et al.
# Submitted via: ExactAudioCopyFreeDBPlugin 1.0
#
DISCID=330ef317
DTITLE=Various Artist - Wagon Wheels [CD1]
DYEAR=1992
DGENRE=Cowboy Way
TTITLE0=<Various Artists - Back in the Saddle Again (Gene Autry)
TTITLE1=Eddy Arnold - Cherokee Maiden (Bob Wills)
TTITLE2=John Scott Trotter and His Orchestra - High Noon (Tex Ritter)
TTITLE3=Jimmy Wakely - Pistol Packin' Mama (Al Dexter)
TTITLE4=Sons of the Pioneers, The - Mule Train (Frankie Laine)
TTITLE5=Patsy Cline - I'm An Old Cowhand (Patsy Montana)
TTITLE6=Rex Allen - The Streets of Laredo (Marty Robbins)
TTITLE7=Vic Schoen - Down in the Valley (Slim Whitman)
TTITLE8=Sons of the Pioneers, The - El Rancho Grande (Gene Autry)
TTITLE9=Jimmie Rodgers - (I've Got Spurs That) Jingle, Jangle, Jingle 
TTITLE9=(Tex Ritter)
TTITLE10=Sons of the Pioneers, The - Wabash Cannon Ball (Roy Acuff)
TTITLE11=Jimmie Davis - Home on the Range (Gene Autry)
TTITLE12=Jim Reeves - Goodnight Irene (Ernest Tubb and Red Foley)
TTITLE13=Vaughn Monroe - Bury Me Not on the Lone Praire (Tex Ritter)
TTITLE14=Sons of the Pioneers, The - New San Antonio Rose (Bob Wills)
TTITLE15=Kitty Wells - Have I Told You Lately That I Love You (Gene Au
TTITLE15=try)
TTITLE16=Jesters - I Want To Be A Cowboy's Sweetheart (Patsy Montana)
TTITLE17=Sons of the Pioneers, The - That Silver Haired Daddy of Mine 
TTITLE17=(Gene Autry)
TTITLE18=Elton Britt - I'm Thinking Tonight of My BLue Eyes (The Carte
TTITLE18=r Family)
TTITLE19=Vernon Dalhart - Red River Valley (Slim Whitman)
TTITLE20=Montana Slim - Old Shep (Red Foley)
TTITLE21=Jimmie Davis - Jealous Heart (Tex Ritter)
TTITLE22=Sons of the Pioneers, The - Deep in the Heart of Texas (Bob W
TTITLE22=ills)
EXTD=
EXTT0=
EXTT1=
EXTT2=
EXTT3=
EXTT4=
EXTT5=
EXTT6=
EXTT7=
EXTT8=
EXTT9=
EXTT10=
EXTT11=
EXTT12=
EXTT13=
EXTT14=
EXTT15=
EXTT16=
EXTT17=
EXTT18=
EXTT19=
EXTT20=
EXTT21=
EXTT22=
PLAYORDER=
